<?xml version="1.0" standalone="no"?>
<!DOCTYPE svg PUBLIC "-//W3C//DTD SVG 20010904//EN"
 "http://www.w3.org/TR/2001/REC-SVG-20010904/DTD/svg10.dtd">
<svg version="1.0" xmlns="http://www.w3.org/2000/svg"
 width="512.000000pt" height="512.000000pt" viewBox="0 0 512.000000 512.000000"
 preserveAspectRatio="xMidYMid meet">
<metadata>
Created by potrace 1.14, written by Peter Selinger 2001-2017
</metadata>
<g transform="translate(0.000000,512.000000) scale(0.100000,-0.100000)"
fill="#000000" stroke="none">
<path d="M2335 4853 c-448 -54 -830 -199 -1140 -433 -22 -16 -46 -33 -54 -36
-7 -4 -26 -19 -40 -33 -15 -14 -51 -46 -79 -70 -56 -46 -181 -172 -216 -217
-12 -14 -33 -40 -49 -58 -38 -43 -177 -248 -217 -321 -131 -238 -213 -472
-261 -746 -18 -101 -22 -165 -23 -349 -1 -124 2 -254 6 -290 22 -189 72 -389
145 -580 30 -78 139 -299 158 -320 8 -8 13 -17 12 -20 -1 -3 18 -33 41 -67 23
-34 42 -66 42 -72 0 -5 4 -11 9 -13 5 -1 32 -34 62 -73 168 -222 438 -458 674
-588 462 -255 917 -344 1450 -282 250 29 612 150 815 274 19 11 42 24 50 28 8
3 56 33 105 66 80 54 123 86 204 152 43 35 235 230 271 274 19 24 40 49 45 55
25 28 95 126 95 133 0 5 9 16 20 26 11 9 20 24 20 32 0 8 5 15 10 15 6 0 10 6
10 14 0 8 3 16 8 18 15 6 121 216 172 337 63 153 114 354 145 571 37 254 16
580 -54 851 -38 148 -70 240 -125 362 -14 31 -27 60 -27 65 -6 23 -119 215
-178 302 -42 61 -137 185 -171 221 -52 56 -191 196 -207 209 -40 32 -128 105
-133 110 -3 3 -12 10 -22 15 -9 6 -42 28 -75 51 -147 102 -335 197 -523 264
-102 37 -277 83 -352 94 -95 14 -115 18 -138 23 -29 6 -441 12 -485 6z"/>
</g>
</svg>
